<svg width="35" height="25" viewBox="0 0 35 25" fill="none" xmlns="http://www.w3.org/2000/svg">
<path d="M17.2929 9.70711C17.6834 10.0976 18.3166 10.0976 18.7071 9.70711L25.0711 3.34315C25.4616 2.95262 25.4616 2.31946 25.0711 1.92893C24.6805 1.53841 24.0474 1.53841 23.6569 1.92893L18 7.58579L12.3431 1.92893C11.9526 1.53841 11.3195 1.53841 10.9289 1.92893C10.5384 2.31946 10.5384 2.95262 10.9289 3.34315L17.2929 9.70711ZM17 8V9H19V8H17Z" fill="white"/>
<path d="M2.892 22.168C2.204 22.168 1.64 21.908 1.2 21.388C0.76 20.868 0.54 20.12 0.54 19.144C0.54 18.16 0.816 17.364 1.368 16.756C1.928 16.14 2.636 15.832 3.492 15.832C3.916 15.832 4.344 15.908 4.776 16.06V13.6H5.688V20.8L5.808 22L5.016 22.06L4.812 20.98C4.364 21.772 3.724 22.168 2.892 22.168ZM1.452 19.12C1.452 19.84 1.604 20.392 1.908 20.776C2.212 21.16 2.6 21.352 3.072 21.352C3.552 21.352 3.956 21.116 4.284 20.644C4.612 20.164 4.776 19.488 4.776 18.616V16.948C4.376 16.748 3.948 16.648 3.492 16.648C2.9 16.648 2.412 16.88 2.028 17.344C1.644 17.8 1.452 18.392 1.452 19.12ZM9.79744 22.168C9.07744 22.168 8.48144 21.916 8.00944 21.412C7.54544 20.908 7.31344 20.168 7.31344 19.192C7.31344 18.216 7.58944 17.412 8.14144 16.78C8.69344 16.148 9.40944 15.832 10.2894 15.832C10.8494 15.832 11.3014 16.004 11.6454 16.348C11.9894 16.684 12.1614 17.108 12.1614 17.62C12.1614 18.124 11.8974 18.588 11.3694 19.012C10.8494 19.436 10.0894 19.648 9.08944 19.648C8.82544 19.648 8.54544 19.636 8.24944 19.612C8.30544 20.18 8.47744 20.612 8.76544 20.908C9.06144 21.204 9.41744 21.352 9.83344 21.352C10.5294 21.352 11.1094 21.136 11.5734 20.704L12.0054 21.292C11.3974 21.876 10.6614 22.168 9.79744 22.168ZM10.2534 16.648C9.70144 16.648 9.24144 16.844 8.87344 17.236C8.51344 17.628 8.30144 18.148 8.23744 18.796C8.50144 18.836 8.79344 18.856 9.11344 18.856C9.80144 18.856 10.3294 18.728 10.6974 18.472C11.0654 18.216 11.2494 17.92 11.2494 17.584C11.2494 17.336 11.1574 17.12 10.9734 16.936C10.7974 16.744 10.5574 16.648 10.2534 16.648ZM15.1779 21.34C15.5299 21.34 15.8259 21.256 16.0659 21.088C16.3059 20.92 16.4259 20.712 16.4259 20.464C16.4259 20.208 16.3579 20.008 16.2219 19.864C16.0859 19.712 15.9379 19.604 15.7779 19.54C15.6259 19.476 15.4059 19.404 15.1179 19.324C14.8299 19.236 14.6099 19.164 14.4579 19.108C14.3059 19.044 14.1259 18.948 13.9179 18.82C13.5259 18.58 13.3299 18.172 13.3299 17.596C13.3299 17.012 13.5259 16.572 13.9179 16.276C14.3099 15.98 14.7699 15.832 15.2979 15.832C15.6259 15.832 15.9539 15.876 16.2819 15.964C16.6179 16.052 16.8699 16.144 17.0379 16.24L16.7019 16.972C16.3179 16.764 15.8499 16.66 15.2979 16.66C15.0179 16.66 14.7699 16.736 14.5539 16.888C14.3459 17.032 14.2419 17.22 14.2419 17.452C14.2419 17.676 14.3059 17.852 14.4339 17.98C14.5619 18.108 14.6939 18.2 14.8299 18.256C14.9659 18.312 15.1739 18.38 15.4539 18.46C15.7339 18.54 15.9579 18.616 16.1259 18.688C16.3019 18.752 16.4979 18.856 16.7139 19C17.1299 19.28 17.3379 19.724 17.3379 20.332C17.3379 20.932 17.1299 21.388 16.7139 21.7C16.3059 22.012 15.7939 22.168 15.1779 22.168C14.3459 22.168 13.6419 21.9 13.0659 21.364L13.5579 20.704C13.9979 21.128 14.5379 21.34 15.1779 21.34ZM18.6539 13.6H19.5659V20.68C19.5659 21.12 19.7459 21.34 20.1059 21.34C20.3379 21.34 20.5659 21.26 20.7899 21.1L21.1499 21.748C20.7099 22.028 20.2939 22.168 19.9019 22.168C19.5099 22.168 19.2019 22.06 18.9779 21.844C18.7619 21.628 18.6539 21.24 18.6539 20.68V13.6ZM22.0103 14.692C21.9143 14.58 21.8663 14.44 21.8663 14.272C21.8663 14.104 21.9143 13.968 22.0103 13.864C22.1063 13.752 22.2463 13.696 22.4303 13.696C22.6143 13.696 22.7583 13.752 22.8623 13.864C22.9663 13.976 23.0183 14.112 23.0183 14.272C23.0183 14.432 22.9663 14.568 22.8623 14.68C22.7583 14.792 22.6143 14.848 22.4303 14.848C22.2463 14.848 22.1063 14.796 22.0103 14.692ZM21.9863 22V16H22.8983V22H21.9863ZM24.4806 16.78V16H28.7766L25.6326 21.22H28.7646V22H24.1086L27.2286 16.78H24.4806ZM32.0396 22.168C31.3196 22.168 30.7236 21.916 30.2516 21.412C29.7876 20.908 29.5556 20.168 29.5556 19.192C29.5556 18.216 29.8316 17.412 30.3836 16.78C30.9356 16.148 31.6516 15.832 32.5316 15.832C33.0916 15.832 33.5436 16.004 33.8876 16.348C34.2316 16.684 34.4036 17.108 34.4036 17.62C34.4036 18.124 34.1396 18.588 33.6116 19.012C33.0916 19.436 32.3316 19.648 31.3316 19.648C31.0676 19.648 30.7876 19.636 30.4916 19.612C30.5476 20.18 30.7196 20.612 31.0076 20.908C31.3036 21.204 31.6596 21.352 32.0756 21.352C32.7716 21.352 33.3516 21.136 33.8156 20.704L34.2476 21.292C33.6396 21.876 32.9036 22.168 32.0396 22.168ZM32.4956 16.648C31.9436 16.648 31.4836 16.844 31.1156 17.236C30.7556 17.628 30.5436 18.148 30.4796 18.796C30.7436 18.836 31.0356 18.856 31.3556 18.856C32.0436 18.856 32.5716 18.728 32.9396 18.472C33.3076 18.216 33.4916 17.92 33.4916 17.584C33.4916 17.336 33.3996 17.12 33.2156 16.936C33.0396 16.744 32.7996 16.648 32.4956 16.648Z" fill="white"/>
</svg>
